<svg width="463" height="307" viewBox="0 0 463 307" fill="none" xmlns="http://www.w3.org/2000/svg">
<mask id="path-1-outside-1_2255_14" maskUnits="userSpaceOnUse" x="0" y="0" width="451" height="246" fill="black">
<rect fill="white" width="451" height="246"/>
<path d="M47.05 20.2C45.15 19.4 42.9 18.8 40.3 18.4C37.7 17.9 35.25 17.65 32.95 17.65C29.65 17.65 26.85 18.1 24.55 19C22.35 19.9 20.65 21.3 19.45 23.2C18.25 25.1 17.65 27.6 17.65 30.7V79.9C17.65 83 18.2 85.5 19.3 87.4C20.4 89.2 21.95 90.55 23.95 91.45C26.05 92.25 28.6 92.65 31.6 92.65C34.7 92.65 37.75 92.35 40.75 91.75C43.75 91.15 46.35 90.5 48.55 89.8C50.85 89.1 52.25 88.7 52.75 88.6L55.15 104.35C50.85 105.95 46.65 107.2 42.55 108.1C38.45 109.1 34.5 109.6 30.7 109.6C24.5 109.6 19.15 108.5 14.65 106.3C10.25 104 6.85 100.65 4.45 96.25C2.15 91.85 1 86.5 1 80.2V31.15C1 24.55 2.25 19 4.75 14.5C7.35 9.99999 10.8 6.65 15.1 4.45C19.5 2.15 24.45 1 29.95 1C33.55 1 37.15 1.45 40.75 2.35C44.35 3.15 47.95 4.44999 51.55 6.25L47.05 20.2Z"/>
<path d="M141.722 107.8H121.922L115.922 80.2H91.7723L85.7723 107.8H67.0223L92.5223 2.79999H115.772L141.722 107.8ZM95.8223 62.65H112.172L103.922 24.25L95.8223 62.65Z"/>
<path d="M170.451 2.79999L194.001 76.6L218.001 2.79999H234.501V107.8H218.001V52.15L200.301 107.8H187.851L170.451 52.3V107.8H153.801V2.79999H170.451Z"/>
<path d="M246.745 18.55V2.79999H273.445V107.8H256.795V18.85L246.745 18.55Z"/>
<path d="M344.241 20.65C342.241 19.75 340.141 19 337.941 18.4C335.841 17.8 333.691 17.35 331.491 17.05C329.291 16.75 327.041 16.6 324.741 16.6C323.141 16.6 321.341 16.8 319.341 17.2C317.441 17.5 315.591 18.05 313.791 18.85C311.991 19.65 310.491 20.75 309.291 22.15C308.191 23.55 307.641 25.3 307.641 27.4C307.641 29.5 308.341 31.4 309.741 33.1C311.241 34.7 313.191 36.2 315.591 37.6C317.991 39 320.691 40.4 323.691 41.8C326.791 43.1 329.941 44.55 333.141 46.15C336.441 47.65 339.591 49.35 342.591 51.25C345.691 53.15 348.441 55.35 350.841 57.85C353.241 60.35 355.141 63.25 356.541 66.55C358.041 69.85 358.791 73.65 358.791 77.95C358.791 83.55 357.791 88.35 355.791 92.35C353.791 96.35 350.991 99.65 347.391 102.25C343.891 104.75 339.891 106.6 335.391 107.8C330.891 109 326.141 109.6 321.141 109.6C316.841 109.6 312.541 109 308.241 107.8C304.041 106.7 300.041 105.05 296.241 102.85C292.541 100.65 289.241 97.9 286.341 94.6L295.491 83.5C297.691 85.8 300.191 87.75 302.991 89.35C305.891 90.85 308.891 92 311.991 92.8C315.191 93.6 318.341 94 321.441 94C323.841 94 326.191 93.7 328.491 93.1C330.791 92.4 332.891 91.4 334.791 90.1C336.691 88.8 338.191 87.15 339.291 85.15C340.391 83.15 340.941 80.8 340.941 78.1C340.941 75.4 340.241 73.05 338.841 71.05C337.441 68.95 335.541 67.1 333.141 65.5C330.741 63.8 328.041 62.25 325.041 60.85C322.041 59.35 318.941 57.9 315.741 56.5C312.641 55 309.591 53.4 306.591 51.7C303.591 49.9 300.891 47.9 298.491 45.7C296.091 43.4 294.191 40.8 292.791 37.9C291.391 34.9 290.691 31.45 290.691 27.55C290.691 22.75 291.741 18.7 293.841 15.4C295.941 12 298.691 9.3 302.091 7.3C305.591 5.2 309.341 3.7 313.341 2.79999C317.341 1.8 321.241 1.3 325.041 1.3C327.841 1.3 330.591 1.5 333.291 1.9C335.991 2.3 338.691 2.9 341.391 3.7C344.091 4.5 346.641 5.54999 349.041 6.85L344.241 20.65Z"/>
<path d="M439.818 107.8H420.018L414.018 80.2H389.868L383.868 107.8H365.118L390.618 2.79999H413.868L439.818 107.8ZM393.918 62.65H410.268L402.018 24.25L393.918 62.65Z"/>
<path d="M30.1 137.8C37.3 137.8 43.5 139.15 48.7 141.85C53.9 144.45 57.9 148.25 60.7 153.25C63.6 158.25 65.05 164.35 65.05 171.55V211.75C65.05 218.35 63.85 224 61.45 228.7C59.15 233.3 55.6 236.8 50.8 239.2C46.1 241.6 40.2 242.8 33.1 242.8H1.75V137.8H30.1ZM30.85 227.5C35.05 227.5 38.35 227.05 40.75 226.15C43.15 225.25 44.85 224.1 45.85 222.7C46.95 221.2 47.65 219.65 47.95 218.05C48.25 216.35 48.4 214.75 48.4 213.25V170.05C48.4 166.45 47.8 163.55 46.6 161.35C45.4 159.05 43.55 157.35 41.05 156.25C38.65 155.15 35.5 154.6 31.6 154.6H18.4V227.5H30.85Z"/>
<path d="M86.4824 242.8V137.8H136.732V154.3H103.132V180.7H123.682L119.032 196.45H103.132V227.65H136.432V242.8H86.4824Z"/>
<path d="M240.893 137.8C244.793 137.8 248.693 138.35 252.593 139.45C256.493 140.55 260.043 142.45 263.243 145.15C266.443 147.85 268.993 151.65 270.893 156.55C272.793 161.35 273.743 167.45 273.743 174.85C273.743 180.75 273.193 185.85 272.093 190.15C271.093 194.45 269.643 198.05 267.743 200.95C265.943 203.85 263.843 206.15 261.443 207.85L274.343 242.8H256.643L246.293 213.25C245.693 213.35 245.093 213.4 244.493 213.4C243.893 213.4 243.293 213.4 242.693 213.4C242.093 213.4 241.493 213.4 240.893 213.4H224.843V242.8H208.193V137.8H240.893ZM234.743 197.65C238.643 197.65 241.993 197.4 244.793 196.9C247.593 196.4 249.893 195.4 251.693 193.9C253.493 192.3 254.793 190 255.593 187C256.493 184 256.943 179.95 256.943 174.85C256.943 170.15 256.493 166.45 255.593 163.75C254.793 160.95 253.493 158.9 251.693 157.6C249.893 156.2 247.593 155.3 244.793 154.9C241.993 154.5 238.643 154.3 234.743 154.3H224.843V197.65H234.743Z"/>
<path d="M358.27 214.9C358.27 221.3 356.92 226.7 354.22 231.1C351.52 235.5 347.82 238.85 343.12 241.15C338.42 243.35 332.97 244.45 326.77 244.45C320.57 244.45 315.07 243.35 310.27 241.15C305.47 238.85 301.72 235.5 299.02 231.1C296.32 226.7 294.97 221.3 294.97 214.9V137.8H311.62V212.05C311.62 215.35 312.17 218.15 313.27 220.45C314.47 222.75 316.17 224.5 318.37 225.7C320.57 226.9 323.32 227.5 326.62 227.5C329.82 227.5 332.52 226.85 334.72 225.55C336.92 224.15 338.62 222.3 339.82 220C341.02 217.6 341.62 214.85 341.62 211.75V137.8H358.27V214.9Z"/>
<path d="M449.222 242.8H429.422L423.422 215.2H399.272L393.272 242.8H374.522L400.022 137.8H423.272L449.222 242.8ZM403.322 197.65H419.672L411.422 159.25L403.322 197.65Z"/>
</mask>
<path d="M47.05 20.2C45.15 19.4 42.9 18.8 40.3 18.4C37.7 17.9 35.25 17.65 32.95 17.65C29.65 17.65 26.85 18.1 24.55 19C22.35 19.9 20.65 21.3 19.45 23.2C18.25 25.1 17.65 27.6 17.65 30.7V79.9C17.65 83 18.2 85.5 19.3 87.4C20.4 89.2 21.95 90.55 23.95 91.45C26.05 92.25 28.6 92.65 31.6 92.65C34.7 92.65 37.75 92.35 40.75 91.75C43.75 91.15 46.35 90.5 48.55 89.8C50.85 89.1 52.25 88.7 52.75 88.6L55.15 104.35C50.85 105.95 46.65 107.2 42.55 108.1C38.45 109.1 34.5 109.6 30.7 109.6C24.5 109.6 19.15 108.5 14.65 106.3C10.25 104 6.85 100.65 4.45 96.25C2.15 91.85 1 86.5 1 80.2V31.15C1 24.55 2.25 19 4.75 14.5C7.35 9.99999 10.8 6.65 15.1 4.45C19.5 2.15 24.45 1 29.95 1C33.55 1 37.15 1.45 40.75 2.35C44.35 3.15 47.95 4.44999 51.55 6.25L47.05 20.2Z" fill="#D0C81C"/>
<path d="M141.722 107.8H121.922L115.922 80.2H91.7723L85.7723 107.8H67.0223L92.5223 2.79999H115.772L141.722 107.8ZM95.8223 62.65H112.172L103.922 24.25L95.8223 62.65Z" fill="#D0C81C"/>
<path d="M170.451 2.79999L194.001 76.6L218.001 2.79999H234.501V107.8H218.001V52.15L200.301 107.8H187.851L170.451 52.3V107.8H153.801V2.79999H170.451Z" fill="#D0C81C"/>
<path d="M246.745 18.55V2.79999H273.445V107.8H256.795V18.85L246.745 18.55Z" fill="#D0C81C"/>
<path d="M344.241 20.65C342.241 19.75 340.141 19 337.941 18.4C335.841 17.8 333.691 17.35 331.491 17.05C329.291 16.75 327.041 16.6 324.741 16.6C323.141 16.6 321.341 16.8 319.341 17.2C317.441 17.5 315.591 18.05 313.791 18.85C311.991 19.65 310.491 20.75 309.291 22.15C308.191 23.55 307.641 25.3 307.641 27.4C307.641 29.5 308.341 31.4 309.741 33.1C311.241 34.7 313.191 36.2 315.591 37.6C317.991 39 320.691 40.4 323.691 41.8C326.791 43.1 329.941 44.55 333.141 46.15C336.441 47.65 339.591 49.35 342.591 51.25C345.691 53.15 348.441 55.35 350.841 57.85C353.241 60.35 355.141 63.25 356.541 66.55C358.041 69.85 358.791 73.65 358.791 77.95C358.791 83.55 357.791 88.35 355.791 92.35C353.791 96.35 350.991 99.65 347.391 102.25C343.891 104.75 339.891 106.6 335.391 107.8C330.891 109 326.141 109.6 321.141 109.6C316.841 109.6 312.541 109 308.241 107.8C304.041 106.7 300.041 105.05 296.241 102.85C292.541 100.65 289.241 97.9 286.341 94.6L295.491 83.5C297.691 85.8 300.191 87.75 302.991 89.35C305.891 90.85 308.891 92 311.991 92.8C315.191 93.6 318.341 94 321.441 94C323.841 94 326.191 93.7 328.491 93.1C330.791 92.4 332.891 91.4 334.791 90.1C336.691 88.8 338.191 87.15 339.291 85.15C340.391 83.15 340.941 80.8 340.941 78.1C340.941 75.4 340.241 73.05 338.841 71.05C337.441 68.95 335.541 67.1 333.141 65.5C330.741 63.8 328.041 62.25 325.041 60.85C322.041 59.35 318.941 57.9 315.741 56.5C312.641 55 309.591 53.4 306.591 51.7C303.591 49.9 300.891 47.9 298.491 45.7C296.091 43.4 294.191 40.8 292.791 37.9C291.391 34.9 290.691 31.45 290.691 27.55C290.691 22.75 291.741 18.7 293.841 15.4C295.941 12 298.691 9.3 302.091 7.3C305.591 5.2 309.341 3.7 313.341 2.79999C317.341 1.8 321.241 1.3 325.041 1.3C327.841 1.3 330.591 1.5 333.291 1.9C335.991 2.3 338.691 2.9 341.391 3.7C344.091 4.5 346.641 5.54999 349.041 6.85L344.241 20.65Z" fill="#D0C81C"/>
<path d="M439.818 107.8H420.018L414.018 80.2H389.868L383.868 107.8H365.118L390.618 2.79999H413.868L439.818 107.8ZM393.918 62.65H410.268L402.018 24.25L393.918 62.65Z" fill="#D0C81C"/>
<path d="M30.1 137.8C37.3 137.8 43.5 139.15 48.7 141.85C53.9 144.45 57.9 148.25 60.7 153.25C63.6 158.25 65.05 164.35 65.05 171.55V211.75C65.05 218.35 63.85 224 61.45 228.7C59.15 233.3 55.6 236.8 50.8 239.2C46.1 241.6 40.2 242.8 33.1 242.8H1.75V137.8H30.1ZM30.85 227.5C35.05 227.5 38.35 227.05 40.75 226.15C43.15 225.25 44.85 224.1 45.85 222.7C46.95 221.2 47.65 219.65 47.95 218.05C48.25 216.35 48.4 214.75 48.4 213.25V170.05C48.4 166.45 47.8 163.55 46.6 161.35C45.4 159.05 43.55 157.35 41.05 156.25C38.65 155.15 35.5 154.6 31.6 154.6H18.4V227.5H30.85Z" fill="#D0C81C"/>
<path d="M86.4824 242.8V137.8H136.732V154.3H103.132V180.7H123.682L119.032 196.45H103.132V227.65H136.432V242.8H86.4824Z" fill="#D0C81C"/>
<path d="M240.893 137.8C244.793 137.8 248.693 138.35 252.593 139.45C256.493 140.55 260.043 142.45 263.243 145.15C266.443 147.85 268.993 151.65 270.893 156.55C272.793 161.35 273.743 167.45 273.743 174.85C273.743 180.75 273.193 185.85 272.093 190.15C271.093 194.45 269.643 198.05 267.743 200.95C265.943 203.85 263.843 206.15 261.443 207.85L274.343 242.8H256.643L246.293 213.25C245.693 213.35 245.093 213.4 244.493 213.4C243.893 213.4 243.293 213.4 242.693 213.4C242.093 213.4 241.493 213.4 240.893 213.4H224.843V242.8H208.193V137.8H240.893ZM234.743 197.65C238.643 197.65 241.993 197.4 244.793 196.9C247.593 196.4 249.893 195.4 251.693 193.9C253.493 192.3 254.793 190 255.593 187C256.493 184 256.943 179.95 256.943 174.85C256.943 170.15 256.493 166.45 255.593 163.75C254.793 160.95 253.493 158.9 251.693 157.6C249.893 156.2 247.593 155.3 244.793 154.9C241.993 154.5 238.643 154.3 234.743 154.3H224.843V197.65H234.743Z" fill="#D0C81C"/>
<path d="M358.27 214.9C358.27 221.3 356.92 226.7 354.22 231.1C351.52 235.5 347.82 238.85 343.12 241.15C338.42 243.35 332.97 244.45 326.77 244.45C320.57 244.45 315.07 243.35 310.27 241.15C305.47 238.85 301.72 235.5 299.02 231.1C296.32 226.7 294.97 221.3 294.97 214.9V137.8H311.62V212.05C311.62 215.35 312.17 218.15 313.27 220.45C314.47 222.75 316.17 224.5 318.37 225.7C320.57 226.9 323.32 227.5 326.62 227.5C329.82 227.5 332.52 226.85 334.72 225.55C336.92 224.15 338.62 222.3 339.82 220C341.02 217.6 341.62 214.85 341.62 211.75V137.8H358.27V214.9Z" fill="#D0C81C"/>
<path d="M449.222 242.8H429.422L423.422 215.2H399.272L393.272 242.8H374.522L400.022 137.8H423.272L449.222 242.8ZM403.322 197.65H419.672L411.422 159.25L403.322 197.65Z" fill="#D0C81C"/>
<path d="M47.05 20.2C45.15 19.4 42.9 18.8 40.3 18.4C37.7 17.9 35.25 17.65 32.95 17.65C29.65 17.65 26.85 18.1 24.55 19C22.35 19.9 20.65 21.3 19.45 23.2C18.25 25.1 17.65 27.6 17.65 30.7V79.9C17.65 83 18.2 85.5 19.3 87.4C20.4 89.2 21.95 90.55 23.95 91.45C26.05 92.25 28.6 92.65 31.6 92.65C34.7 92.65 37.75 92.35 40.75 91.75C43.75 91.15 46.35 90.5 48.55 89.8C50.85 89.1 52.25 88.7 52.75 88.6L55.15 104.35C50.85 105.95 46.65 107.2 42.55 108.1C38.45 109.1 34.5 109.6 30.7 109.6C24.5 109.6 19.15 108.5 14.65 106.3C10.25 104 6.85 100.65 4.45 96.25C2.15 91.85 1 86.5 1 80.2V31.15C1 24.55 2.25 19 4.75 14.5C7.35 9.99999 10.8 6.65 15.1 4.45C19.5 2.15 24.45 1 29.95 1C33.55 1 37.15 1.45 40.75 2.35C44.35 3.15 47.95 4.44999 51.55 6.25L47.05 20.2Z" stroke="#111827" stroke-width="2" mask="url(#path-1-outside-1_2255_14)"/>
<path d="M141.722 107.8H121.922L115.922 80.2H91.7723L85.7723 107.8H67.0223L92.5223 2.79999H115.772L141.722 107.8ZM95.8223 62.65H112.172L103.922 24.25L95.8223 62.65Z" stroke="#111827" stroke-width="2" mask="url(#path-1-outside-1_2255_14)"/>
<path d="M170.451 2.79999L194.001 76.6L218.001 2.79999H234.501V107.8H218.001V52.15L200.301 107.8H187.851L170.451 52.3V107.8H153.801V2.79999H170.451Z" stroke="#111827" stroke-width="2" mask="url(#path-1-outside-1_2255_14)"/>
<path d="M246.745 18.55V2.79999H273.445V107.8H256.795V18.85L246.745 18.55Z" stroke="#111827" stroke-width="2" mask="url(#path-1-outside-1_2255_14)"/>
<path d="M344.241 20.65C342.241 19.75 340.141 19 337.941 18.4C335.841 17.8 333.691 17.35 331.491 17.05C329.291 16.75 327.041 16.6 324.741 16.6C323.141 16.6 321.341 16.8 319.341 17.2C317.441 17.5 315.591 18.05 313.791 18.85C311.991 19.65 310.491 20.75 309.291 22.15C308.191 23.55 307.641 25.3 307.641 27.4C307.641 29.5 308.341 31.4 309.741 33.1C311.241 34.7 313.191 36.2 315.591 37.6C317.991 39 320.691 40.4 323.691 41.8C326.791 43.1 329.941 44.55 333.141 46.15C336.441 47.65 339.591 49.35 342.591 51.25C345.691 53.15 348.441 55.35 350.841 57.85C353.241 60.35 355.141 63.25 356.541 66.55C358.041 69.85 358.791 73.65 358.791 77.95C358.791 83.55 357.791 88.35 355.791 92.35C353.791 96.35 350.991 99.65 347.391 102.25C343.891 104.75 339.891 106.6 335.391 107.8C330.891 109 326.141 109.6 321.141 109.6C316.841 109.6 312.541 109 308.241 107.8C304.041 106.7 300.041 105.05 296.241 102.85C292.541 100.65 289.241 97.9 286.341 94.6L295.491 83.5C297.691 85.8 300.191 87.75 302.991 89.35C305.891 90.85 308.891 92 311.991 92.8C315.191 93.6 318.341 94 321.441 94C323.841 94 326.191 93.7 328.491 93.1C330.791 92.4 332.891 91.4 334.791 90.1C336.691 88.8 338.191 87.15 339.291 85.15C340.391 83.15 340.941 80.8 340.941 78.1C340.941 75.4 340.241 73.05 338.841 71.05C337.441 68.95 335.541 67.1 333.141 65.5C330.741 63.8 328.041 62.25 325.041 60.85C322.041 59.35 318.941 57.9 315.741 56.5C312.641 55 309.591 53.4 306.591 51.7C303.591 49.9 300.891 47.9 298.491 45.7C296.091 43.4 294.191 40.8 292.791 37.9C291.391 34.9 290.691 31.45 290.691 27.55C290.691 22.75 291.741 18.7 293.841 15.4C295.941 12 298.691 9.3 302.091 7.3C305.591 5.2 309.341 3.7 313.341 2.79999C317.341 1.8 321.241 1.3 325.041 1.3C327.841 1.3 330.591 1.5 333.291 1.9C335.991 2.3 338.691 2.9 341.391 3.7C344.091 4.5 346.641 5.54999 349.041 6.85L344.241 20.65Z" stroke="#111827" stroke-width="2" mask="url(#path-1-outside-1_2255_14)"/>
<path d="M439.818 107.8H420.018L414.018 80.2H389.868L383.868 107.8H365.118L390.618 2.79999H413.868L439.818 107.8ZM393.918 62.65H410.268L402.018 24.25L393.918 62.65Z" stroke="#111827" stroke-width="2" mask="url(#path-1-outside-1_2255_14)"/>
<path d="M30.1 137.8C37.3 137.8 43.5 139.15 48.7 141.85C53.9 144.45 57.9 148.25 60.7 153.25C63.6 158.25 65.05 164.35 65.05 171.55V211.75C65.05 218.35 63.85 224 61.45 228.7C59.15 233.3 55.6 236.8 50.8 239.2C46.1 241.6 40.2 242.8 33.1 242.8H1.75V137.8H30.1ZM30.85 227.5C35.05 227.5 38.35 227.05 40.75 226.15C43.15 225.25 44.85 224.1 45.85 222.7C46.95 221.2 47.65 219.65 47.95 218.05C48.25 216.35 48.4 214.75 48.4 213.25V170.05C48.4 166.45 47.8 163.55 46.6 161.35C45.4 159.05 43.55 157.35 41.05 156.25C38.65 155.15 35.5 154.6 31.6 154.6H18.4V227.5H30.85Z" stroke="#111827" stroke-width="2" mask="url(#path-1-outside-1_2255_14)"/>
<path d="M86.4824 242.8V137.8H136.732V154.3H103.132V180.7H123.682L119.032 196.45H103.132V227.65H136.432V242.8H86.4824Z" stroke="#111827" stroke-width="2" mask="url(#path-1-outside-1_2255_14)"/>
<path d="M240.893 137.8C244.793 137.8 248.693 138.35 252.593 139.45C256.493 140.55 260.043 142.45 263.243 145.15C266.443 147.85 268.993 151.65 270.893 156.55C272.793 161.35 273.743 167.45 273.743 174.85C273.743 180.75 273.193 185.85 272.093 190.15C271.093 194.45 269.643 198.05 267.743 200.95C265.943 203.85 263.843 206.15 261.443 207.85L274.343 242.8H256.643L246.293 213.25C245.693 213.35 245.093 213.4 244.493 213.4C243.893 213.4 243.293 213.4 242.693 213.4C242.093 213.4 241.493 213.4 240.893 213.4H224.843V242.8H208.193V137.8H240.893ZM234.743 197.65C238.643 197.65 241.993 197.4 244.793 196.9C247.593 196.4 249.893 195.4 251.693 193.9C253.493 192.3 254.793 190 255.593 187C256.493 184 256.943 179.95 256.943 174.85C256.943 170.15 256.493 166.45 255.593 163.75C254.793 160.95 253.493 158.9 251.693 157.6C249.893 156.2 247.593 155.3 244.793 154.9C241.993 154.5 238.643 154.3 234.743 154.3H224.843V197.65H234.743Z" stroke="#111827" stroke-width="2" mask="url(#path-1-outside-1_2255_14)"/>
<path d="M358.27 214.9C358.27 221.3 356.92 226.7 354.22 231.1C351.52 235.5 347.82 238.85 343.12 241.15C338.42 243.35 332.97 244.45 326.77 244.45C320.57 244.45 315.07 243.35 310.27 241.15C305.47 238.85 301.72 235.5 299.02 231.1C296.32 226.7 294.97 221.3 294.97 214.9V137.8H311.62V212.05C311.62 215.35 312.17 218.15 313.27 220.45C314.47 222.75 316.17 224.5 318.37 225.7C320.57 226.9 323.32 227.5 326.62 227.5C329.82 227.5 332.52 226.85 334.72 225.55C336.92 224.15 338.62 222.3 339.82 220C341.02 217.6 341.62 214.85 341.62 211.75V137.8H358.27V214.9Z" stroke="#111827" stroke-width="2" mask="url(#path-1-outside-1_2255_14)"/>
<path d="M449.222 242.8H429.422L423.422 215.2H399.272L393.272 242.8H374.522L400.022 137.8H423.272L449.222 242.8ZM403.322 197.65H419.672L411.422 159.25L403.322 197.65Z" stroke="#111827" stroke-width="2" mask="url(#path-1-outside-1_2255_14)"/>
<mask id="path-2-outside-2_2255_14" maskUnits="userSpaceOnUse" x="245.967" y="208.972" width="217" height="98" fill="black">
<rect fill="white" x="245.967" y="208.972" width="217" height="98"/>
<path d="M273.592 291.089C273.592 290.763 273.592 290.47 273.592 290.21C273.657 289.95 273.82 289.689 274.081 289.429C274.862 288.452 275.741 287.443 276.717 286.401C277.694 285.295 278.638 284.22 279.549 283.179C280.461 282.072 281.307 280.933 282.088 279.761C282.87 278.589 283.521 277.417 284.042 276.245V275.659L271.249 278.296H269.784C268.872 278.296 267.733 278.231 266.366 278.101C265.064 277.97 263.762 277.71 262.459 277.319C261.222 276.864 260.148 276.245 259.237 275.464C258.39 274.683 257.967 273.641 257.967 272.339C258.032 270.841 258.814 269.181 260.311 267.358C261.808 265.535 263.566 263.745 265.584 261.987C267.603 260.229 269.621 258.602 271.639 257.104C273.722 255.607 275.383 254.435 276.62 253.589C277.987 252.808 279.614 252.189 281.502 251.733C283.39 251.213 285.116 250.952 286.678 250.952C287.98 250.952 289.12 251.213 290.096 251.733C291.073 252.189 291.561 253.133 291.561 254.565C291.561 255.151 291.496 255.705 291.366 256.226C291.301 256.746 290.91 257.104 290.194 257.3C288.111 257.104 286.157 257.267 284.334 257.788C282.512 258.244 280.786 258.96 279.159 259.937C277.531 260.913 276.001 262.085 274.569 263.452C273.137 264.754 271.737 266.121 270.37 267.554C269.979 268.009 269.491 268.66 268.905 269.507C268.319 270.288 268.026 270.744 268.026 270.874V270.972C269.719 270.972 271.379 270.809 273.006 270.483C274.699 270.158 276.359 269.832 277.987 269.507C279.68 269.116 281.34 268.758 282.967 268.433C284.66 268.107 286.385 267.944 288.143 267.944C288.794 267.944 289.51 268.009 290.292 268.14C291.073 268.205 291.789 268.4 292.44 268.726C293.156 269.051 293.709 269.507 294.1 270.093C294.556 270.614 294.784 271.297 294.784 272.144C294.784 273.381 294.458 274.585 293.807 275.757C293.221 276.864 292.31 278.231 291.073 279.858C289.901 281.421 288.371 283.341 286.483 285.62C284.66 287.899 282.479 290.828 279.94 294.409C279.81 294.604 279.484 294.735 278.963 294.8C278.508 294.865 278.117 294.897 277.792 294.897C276.88 294.897 275.936 294.507 274.959 293.726C274.048 292.944 273.592 292.065 273.592 291.089Z"/>
<path d="M308.456 266.284C307.544 266.284 306.73 266.512 306.014 266.968C305.298 267.424 304.452 267.651 303.475 267.651C303.345 267.651 302.987 267.651 302.401 267.651C301.88 267.586 301.555 267.554 301.424 267.554C301.164 267.228 300.871 266.968 300.545 266.772C300.22 266.577 299.894 266.382 299.569 266.187C299.243 265.926 298.95 265.633 298.69 265.308C298.495 264.982 298.397 264.526 298.397 263.94C298.397 262.964 298.788 262.183 299.569 261.597C300.35 260.946 301.262 260.392 302.303 259.937C303.345 259.481 304.387 259.058 305.428 258.667C306.535 258.276 307.414 257.821 308.065 257.3V253.003C308.065 248.185 307.837 243.368 307.381 238.55C306.926 233.667 306.698 228.849 306.698 224.097C306.698 222.795 307.023 221.948 307.674 221.558C308.325 221.167 309.204 220.972 310.311 220.972C311.613 220.972 312.557 221.362 313.143 222.144C313.794 222.86 314.25 223.771 314.51 224.878C314.771 225.92 314.901 227.059 314.901 228.296C314.901 229.468 314.933 230.477 314.999 231.323C314.999 232.17 315.064 233.667 315.194 235.815C315.324 237.964 315.454 240.243 315.584 242.651C315.715 245.06 315.845 247.339 315.975 249.487C316.105 251.636 316.203 253.133 316.268 253.979C316.528 253.914 317.017 253.752 317.733 253.491C318.514 253.166 319.328 252.873 320.174 252.612C321.021 252.287 321.802 251.994 322.518 251.733C323.299 251.473 323.853 251.278 324.178 251.147C325.871 250.431 327.629 249.65 329.452 248.804C331.275 247.892 333.13 247.437 335.018 247.437C336.32 247.437 337.297 247.892 337.948 248.804C338.664 249.65 339.022 250.659 339.022 251.831C339.022 252.677 338.696 253.296 338.045 253.687C337.394 254.077 336.711 254.435 335.995 254.761L318.221 261.401C318.026 261.532 317.831 261.662 317.635 261.792C317.44 261.857 317.245 261.987 317.049 262.183V265.308C317.049 267.586 317.082 269.963 317.147 272.437C317.277 274.845 317.505 277.189 317.831 279.468C318.156 281.421 318.514 283.341 318.905 285.229C319.295 287.118 319.491 289.038 319.491 290.991C319.491 291.577 319.295 292.358 318.905 293.335C318.514 294.312 317.896 294.8 317.049 294.8C315.292 294.8 313.859 294.279 312.752 293.237C311.646 292.196 311.027 290.796 310.897 289.038C310.571 285.653 310.213 281.942 309.823 277.905C309.497 273.869 309.172 269.995 308.846 266.284H308.456Z"/>
<path d="M342.44 279.858L346.053 254.761C346.183 253.914 346.542 253.296 347.127 252.905C347.778 252.515 348.495 252.319 349.276 252.319C350.708 252.319 351.847 252.743 352.694 253.589C353.54 254.37 354.256 255.347 354.842 256.519H354.94C355.721 256.519 356.405 256.388 356.991 256.128C357.642 255.802 358.423 255.64 359.334 255.64C361.418 255.64 363.176 256.291 364.608 257.593C366.105 258.895 367.31 260.49 368.221 262.378C369.133 264.201 369.784 266.187 370.174 268.335C370.63 270.483 370.858 272.371 370.858 273.999C370.858 275.952 370.337 278.133 369.295 280.542C368.319 282.951 366.984 285.229 365.292 287.378C363.664 289.526 361.808 291.317 359.725 292.749C357.642 294.181 355.526 294.897 353.377 294.897C351.424 294.897 349.732 294.442 348.299 293.53C346.932 292.619 345.793 291.479 344.881 290.112C344.035 288.68 343.417 287.085 343.026 285.327C342.635 283.569 342.44 281.844 342.44 280.151V279.858ZM350.643 280.444C350.773 281.095 350.903 281.844 351.034 282.69C351.164 283.537 351.359 284.318 351.62 285.034C351.88 285.685 352.238 286.206 352.694 286.597C353.215 286.922 353.931 286.922 354.842 286.597C355.689 285.815 356.6 284.937 357.577 283.96C358.553 282.983 359.465 281.942 360.311 280.835C361.222 279.728 361.971 278.556 362.557 277.319C363.143 276.082 363.436 274.78 363.436 273.413C363.696 271.2 363.534 269.181 362.948 267.358C362.362 265.47 361.515 264.136 360.409 263.354C359.367 262.508 358.163 262.41 356.795 263.062C355.428 263.647 354.061 265.308 352.694 268.042C351.913 269.735 351.359 271.72 351.034 273.999C350.773 276.213 350.643 278.263 350.643 280.151V280.444Z"/>
<path d="M379.549 290.601C379.419 288.257 379.191 285.132 378.866 281.226C378.605 277.254 378.28 273.153 377.889 268.921C377.564 264.689 377.206 260.685 376.815 256.909C376.424 253.133 376.099 250.203 375.838 248.12C375.838 247.274 376.229 246.72 377.01 246.46C377.792 246.2 378.54 246.069 379.256 246.069C380.168 246.069 381.112 246.33 382.088 246.851C383.13 247.371 383.781 248.088 384.042 248.999C384.042 249.259 384.074 249.748 384.139 250.464C384.204 251.115 384.237 251.799 384.237 252.515C384.302 253.231 384.367 253.947 384.432 254.663C384.497 255.314 384.53 255.77 384.53 256.03C384.53 256.421 384.53 256.714 384.53 256.909C384.53 257.104 384.53 257.3 384.53 257.495C384.53 257.625 384.562 257.788 384.627 257.983C384.693 258.179 384.79 258.504 384.92 258.96C385.051 258.83 385.181 258.667 385.311 258.472C385.506 258.276 385.637 258.146 385.702 258.081C386.743 256.584 387.752 255.282 388.729 254.175C389.706 253.003 390.715 251.929 391.756 250.952C392.798 249.91 393.937 248.836 395.174 247.729C396.476 246.558 397.974 245.223 399.667 243.726C400.057 243.4 400.35 243.172 400.545 243.042C400.741 242.847 400.903 242.716 401.034 242.651C401.229 242.521 401.424 242.456 401.62 242.456C401.815 242.391 402.075 242.358 402.401 242.358C403.508 242.358 404.614 242.749 405.721 243.53C406.893 244.246 407.479 245.256 407.479 246.558C407.479 247.013 407.316 247.502 406.991 248.022C406.665 248.478 406.275 248.934 405.819 249.39C405.363 249.78 404.875 250.138 404.354 250.464C403.898 250.789 403.475 251.017 403.084 251.147C401.392 252.645 399.601 254.37 397.713 256.323C395.825 258.211 394.068 260.262 392.44 262.476C390.812 264.689 389.478 267 388.436 269.409C387.394 271.818 386.874 274.227 386.874 276.636C386.874 278.849 387.036 281.03 387.362 283.179C387.687 285.327 387.85 287.508 387.85 289.722V293.14C387.329 293.66 386.874 294.084 386.483 294.409C386.092 294.735 385.539 294.897 384.823 294.897C383.716 294.897 382.642 294.442 381.6 293.53C380.558 292.554 379.875 291.577 379.549 290.601Z"/>
<path d="M450.838 267.065C450.708 268.237 450.545 269.149 450.35 269.8C450.22 270.451 449.959 271.037 449.569 271.558C449.178 272.078 448.625 272.632 447.909 273.218C447.193 273.739 446.216 274.52 444.979 275.562C443.742 276.538 442.212 277.84 440.389 279.468C438.566 281.095 436.353 283.211 433.749 285.815C432.707 286.792 431.633 287.801 430.526 288.843C429.419 289.884 428.247 290.828 427.01 291.675C425.838 292.456 424.601 293.107 423.299 293.628C421.997 294.149 420.63 294.409 419.198 294.409C416.398 294.409 414.347 293.465 413.045 291.577C411.743 289.689 411.092 287.508 411.092 285.034C411.092 283.407 411.125 282.039 411.19 280.933C411.32 279.826 411.581 278.394 411.971 276.636C411.255 275.985 410.637 275.431 410.116 274.976C409.595 274.455 409.334 273.771 409.334 272.925C409.334 272.144 409.497 271.623 409.823 271.362C410.213 271.102 410.637 270.939 411.092 270.874C411.613 270.744 412.101 270.614 412.557 270.483C413.013 270.353 413.338 270.093 413.534 269.702C413.664 269.312 413.892 268.595 414.217 267.554C414.608 266.512 414.999 265.438 415.389 264.331C415.78 263.159 416.138 262.085 416.463 261.108C416.854 260.067 417.114 259.351 417.245 258.96C417.7 257.853 418.189 256.746 418.709 255.64C419.295 254.468 419.946 253.426 420.663 252.515C421.444 251.603 422.323 250.854 423.299 250.269C424.341 249.683 425.545 249.39 426.913 249.39C427.694 249.39 428.638 249.748 429.745 250.464C430.917 251.18 432.023 252.059 433.065 253.101C434.107 254.077 434.986 255.119 435.702 256.226C436.418 257.332 436.776 258.276 436.776 259.058C436.776 260.034 436.548 260.946 436.092 261.792C435.637 262.573 435.051 263.322 434.334 264.038C433.683 264.689 432.967 265.308 432.186 265.894C431.405 266.479 430.689 267.033 430.038 267.554C429.972 267.554 429.842 267.619 429.647 267.749C429.452 267.879 429.289 267.977 429.159 268.042C429.094 268.107 428.931 268.27 428.67 268.53C428.475 268.726 428.247 268.953 427.987 269.214C427.726 269.474 427.466 269.735 427.206 269.995C427.01 270.256 426.88 270.418 426.815 270.483C426.62 270.679 426.229 271.004 425.643 271.46C425.122 271.851 424.536 272.306 423.885 272.827C423.234 273.283 422.616 273.739 422.03 274.194C421.509 274.585 421.151 274.845 420.956 274.976L420.565 275.757C420.435 276.017 420.305 276.603 420.174 277.515C420.109 278.361 420.012 279.338 419.881 280.444C419.751 281.551 419.621 282.69 419.491 283.862C419.426 284.969 419.393 285.881 419.393 286.597C419.393 286.662 419.426 286.727 419.491 286.792C419.621 286.922 419.719 286.987 419.784 286.987C420.305 286.987 420.793 286.759 421.249 286.304C421.704 285.848 422.193 285.522 422.713 285.327L438.338 270.874L442.342 264.722C442.668 264.266 443.286 263.778 444.198 263.257C445.174 262.671 446.151 262.378 447.127 262.378C448.104 262.313 448.95 262.606 449.667 263.257C450.448 263.908 450.838 265.177 450.838 267.065ZM429.354 259.448C429.68 259.188 429.81 258.797 429.745 258.276C429.68 257.756 429.484 257.3 429.159 256.909C428.898 256.519 428.54 256.291 428.084 256.226C427.629 256.095 427.206 256.323 426.815 256.909C426.62 257.17 426.262 257.69 425.741 258.472C425.285 259.253 424.797 260.067 424.276 260.913C423.82 261.694 423.43 262.378 423.104 262.964C422.778 263.55 422.713 263.778 422.909 263.647L429.354 259.448Z"/>
</mask>
<path d="M273.592 291.089C273.592 290.763 273.592 290.47 273.592 290.21C273.657 289.95 273.82 289.689 274.081 289.429C274.862 288.452 275.741 287.443 276.717 286.401C277.694 285.295 278.638 284.22 279.549 283.179C280.461 282.072 281.307 280.933 282.088 279.761C282.87 278.589 283.521 277.417 284.042 276.245V275.659L271.249 278.296H269.784C268.872 278.296 267.733 278.231 266.366 278.101C265.064 277.97 263.762 277.71 262.459 277.319C261.222 276.864 260.148 276.245 259.237 275.464C258.39 274.683 257.967 273.641 257.967 272.339C258.032 270.841 258.814 269.181 260.311 267.358C261.808 265.535 263.566 263.745 265.584 261.987C267.603 260.229 269.621 258.602 271.639 257.104C273.722 255.607 275.383 254.435 276.62 253.589C277.987 252.808 279.614 252.189 281.502 251.733C283.39 251.213 285.116 250.952 286.678 250.952C287.98 250.952 289.12 251.213 290.096 251.733C291.073 252.189 291.561 253.133 291.561 254.565C291.561 255.151 291.496 255.705 291.366 256.226C291.301 256.746 290.91 257.104 290.194 257.3C288.111 257.104 286.157 257.267 284.334 257.788C282.512 258.244 280.786 258.96 279.159 259.937C277.531 260.913 276.001 262.085 274.569 263.452C273.137 264.754 271.737 266.121 270.37 267.554C269.979 268.009 269.491 268.66 268.905 269.507C268.319 270.288 268.026 270.744 268.026 270.874V270.972C269.719 270.972 271.379 270.809 273.006 270.483C274.699 270.158 276.359 269.832 277.987 269.507C279.68 269.116 281.34 268.758 282.967 268.433C284.66 268.107 286.385 267.944 288.143 267.944C288.794 267.944 289.51 268.009 290.292 268.14C291.073 268.205 291.789 268.4 292.44 268.726C293.156 269.051 293.709 269.507 294.1 270.093C294.556 270.614 294.784 271.297 294.784 272.144C294.784 273.381 294.458 274.585 293.807 275.757C293.221 276.864 292.31 278.231 291.073 279.858C289.901 281.421 288.371 283.341 286.483 285.62C284.66 287.899 282.479 290.828 279.94 294.409C279.81 294.604 279.484 294.735 278.963 294.8C278.508 294.865 278.117 294.897 277.792 294.897C276.88 294.897 275.936 294.507 274.959 293.726C274.048 292.944 273.592 292.065 273.592 291.089Z" fill="#CAD3E2"/>
<path d="M308.456 266.284C307.544 266.284 306.73 266.512 306.014 266.968C305.298 267.424 304.452 267.651 303.475 267.651C303.345 267.651 302.987 267.651 302.401 267.651C301.88 267.586 301.555 267.554 301.424 267.554C301.164 267.228 300.871 266.968 300.545 266.772C300.22 266.577 299.894 266.382 299.569 266.187C299.243 265.926 298.95 265.633 298.69 265.308C298.495 264.982 298.397 264.526 298.397 263.94C298.397 262.964 298.788 262.183 299.569 261.597C300.35 260.946 301.262 260.392 302.303 259.937C303.345 259.481 304.387 259.058 305.428 258.667C306.535 258.276 307.414 257.821 308.065 257.3V253.003C308.065 248.185 307.837 243.368 307.381 238.55C306.926 233.667 306.698 228.849 306.698 224.097C306.698 222.795 307.023 221.948 307.674 221.558C308.325 221.167 309.204 220.972 310.311 220.972C311.613 220.972 312.557 221.362 313.143 222.144C313.794 222.86 314.25 223.771 314.51 224.878C314.771 225.92 314.901 227.059 314.901 228.296C314.901 229.468 314.933 230.477 314.999 231.323C314.999 232.17 315.064 233.667 315.194 235.815C315.324 237.964 315.454 240.243 315.584 242.651C315.715 245.06 315.845 247.339 315.975 249.487C316.105 251.636 316.203 253.133 316.268 253.979C316.528 253.914 317.017 253.752 317.733 253.491C318.514 253.166 319.328 252.873 320.174 252.612C321.021 252.287 321.802 251.994 322.518 251.733C323.299 251.473 323.853 251.278 324.178 251.147C325.871 250.431 327.629 249.65 329.452 248.804C331.275 247.892 333.13 247.437 335.018 247.437C336.32 247.437 337.297 247.892 337.948 248.804C338.664 249.65 339.022 250.659 339.022 251.831C339.022 252.677 338.696 253.296 338.045 253.687C337.394 254.077 336.711 254.435 335.995 254.761L318.221 261.401C318.026 261.532 317.831 261.662 317.635 261.792C317.44 261.857 317.245 261.987 317.049 262.183V265.308C317.049 267.586 317.082 269.963 317.147 272.437C317.277 274.845 317.505 277.189 317.831 279.468C318.156 281.421 318.514 283.341 318.905 285.229C319.295 287.118 319.491 289.038 319.491 290.991C319.491 291.577 319.295 292.358 318.905 293.335C318.514 294.312 317.896 294.8 317.049 294.8C315.292 294.8 313.859 294.279 312.752 293.237C311.646 292.196 311.027 290.796 310.897 289.038C310.571 285.653 310.213 281.942 309.823 277.905C309.497 273.869 309.172 269.995 308.846 266.284H308.456Z" fill="#CAD3E2"/>
<path d="M342.44 279.858L346.053 254.761C346.183 253.914 346.542 253.296 347.127 252.905C347.778 252.515 348.495 252.319 349.276 252.319C350.708 252.319 351.847 252.743 352.694 253.589C353.54 254.37 354.256 255.347 354.842 256.519H354.94C355.721 256.519 356.405 256.388 356.991 256.128C357.642 255.802 358.423 255.64 359.334 255.64C361.418 255.64 363.176 256.291 364.608 257.593C366.105 258.895 367.31 260.49 368.221 262.378C369.133 264.201 369.784 266.187 370.174 268.335C370.63 270.483 370.858 272.371 370.858 273.999C370.858 275.952 370.337 278.133 369.295 280.542C368.319 282.951 366.984 285.229 365.292 287.378C363.664 289.526 361.808 291.317 359.725 292.749C357.642 294.181 355.526 294.897 353.377 294.897C351.424 294.897 349.732 294.442 348.299 293.53C346.932 292.619 345.793 291.479 344.881 290.112C344.035 288.68 343.417 287.085 343.026 285.327C342.635 283.569 342.44 281.844 342.44 280.151V279.858ZM350.643 280.444C350.773 281.095 350.903 281.844 351.034 282.69C351.164 283.537 351.359 284.318 351.62 285.034C351.88 285.685 352.238 286.206 352.694 286.597C353.215 286.922 353.931 286.922 354.842 286.597C355.689 285.815 356.6 284.937 357.577 283.96C358.553 282.983 359.465 281.942 360.311 280.835C361.222 279.728 361.971 278.556 362.557 277.319C363.143 276.082 363.436 274.78 363.436 273.413C363.696 271.2 363.534 269.181 362.948 267.358C362.362 265.47 361.515 264.136 360.409 263.354C359.367 262.508 358.163 262.41 356.795 263.062C355.428 263.647 354.061 265.308 352.694 268.042C351.913 269.735 351.359 271.72 351.034 273.999C350.773 276.213 350.643 278.263 350.643 280.151V280.444Z" fill="#CAD3E2"/>
<path d="M379.549 290.601C379.419 288.257 379.191 285.132 378.866 281.226C378.605 277.254 378.28 273.153 377.889 268.921C377.564 264.689 377.206 260.685 376.815 256.909C376.424 253.133 376.099 250.203 375.838 248.12C375.838 247.274 376.229 246.72 377.01 246.46C377.792 246.2 378.54 246.069 379.256 246.069C380.168 246.069 381.112 246.33 382.088 246.851C383.13 247.371 383.781 248.088 384.042 248.999C384.042 249.259 384.074 249.748 384.139 250.464C384.204 251.115 384.237 251.799 384.237 252.515C384.302 253.231 384.367 253.947 384.432 254.663C384.497 255.314 384.53 255.77 384.53 256.03C384.53 256.421 384.53 256.714 384.53 256.909C384.53 257.104 384.53 257.3 384.53 257.495C384.53 257.625 384.562 257.788 384.627 257.983C384.693 258.179 384.79 258.504 384.92 258.96C385.051 258.83 385.181 258.667 385.311 258.472C385.506 258.276 385.637 258.146 385.702 258.081C386.743 256.584 387.752 255.282 388.729 254.175C389.706 253.003 390.715 251.929 391.756 250.952C392.798 249.91 393.937 248.836 395.174 247.729C396.476 246.558 397.974 245.223 399.667 243.726C400.057 243.4 400.35 243.172 400.545 243.042C400.741 242.847 400.903 242.716 401.034 242.651C401.229 242.521 401.424 242.456 401.62 242.456C401.815 242.391 402.075 242.358 402.401 242.358C403.508 242.358 404.614 242.749 405.721 243.53C406.893 244.246 407.479 245.256 407.479 246.558C407.479 247.013 407.316 247.502 406.991 248.022C406.665 248.478 406.275 248.934 405.819 249.39C405.363 249.78 404.875 250.138 404.354 250.464C403.898 250.789 403.475 251.017 403.084 251.147C401.392 252.645 399.601 254.37 397.713 256.323C395.825 258.211 394.068 260.262 392.44 262.476C390.812 264.689 389.478 267 388.436 269.409C387.394 271.818 386.874 274.227 386.874 276.636C386.874 278.849 387.036 281.03 387.362 283.179C387.687 285.327 387.85 287.508 387.85 289.722V293.14C387.329 293.66 386.874 294.084 386.483 294.409C386.092 294.735 385.539 294.897 384.823 294.897C383.716 294.897 382.642 294.442 381.6 293.53C380.558 292.554 379.875 291.577 379.549 290.601Z" fill="#CAD3E2"/>
<path d="M450.838 267.065C450.708 268.237 450.545 269.149 450.35 269.8C450.22 270.451 449.959 271.037 449.569 271.558C449.178 272.078 448.625 272.632 447.909 273.218C447.193 273.739 446.216 274.52 444.979 275.562C443.742 276.538 442.212 277.84 440.389 279.468C438.566 281.095 436.353 283.211 433.749 285.815C432.707 286.792 431.633 287.801 430.526 288.843C429.419 289.884 428.247 290.828 427.01 291.675C425.838 292.456 424.601 293.107 423.299 293.628C421.997 294.149 420.63 294.409 419.198 294.409C416.398 294.409 414.347 293.465 413.045 291.577C411.743 289.689 411.092 287.508 411.092 285.034C411.092 283.407 411.125 282.039 411.19 280.933C411.32 279.826 411.581 278.394 411.971 276.636C411.255 275.985 410.637 275.431 410.116 274.976C409.595 274.455 409.334 273.771 409.334 272.925C409.334 272.144 409.497 271.623 409.823 271.362C410.213 271.102 410.637 270.939 411.092 270.874C411.613 270.744 412.101 270.614 412.557 270.483C413.013 270.353 413.338 270.093 413.534 269.702C413.664 269.312 413.892 268.595 414.217 267.554C414.608 266.512 414.999 265.438 415.389 264.331C415.78 263.159 416.138 262.085 416.463 261.108C416.854 260.067 417.114 259.351 417.245 258.96C417.7 257.853 418.189 256.746 418.709 255.64C419.295 254.468 419.946 253.426 420.663 252.515C421.444 251.603 422.323 250.854 423.299 250.269C424.341 249.683 425.545 249.39 426.913 249.39C427.694 249.39 428.638 249.748 429.745 250.464C430.917 251.18 432.023 252.059 433.065 253.101C434.107 254.077 434.986 255.119 435.702 256.226C436.418 257.332 436.776 258.276 436.776 259.058C436.776 260.034 436.548 260.946 436.092 261.792C435.637 262.573 435.051 263.322 434.334 264.038C433.683 264.689 432.967 265.308 432.186 265.894C431.405 266.479 430.689 267.033 430.038 267.554C429.972 267.554 429.842 267.619 429.647 267.749C429.452 267.879 429.289 267.977 429.159 268.042C429.094 268.107 428.931 268.27 428.67 268.53C428.475 268.726 428.247 268.953 427.987 269.214C427.726 269.474 427.466 269.735 427.206 269.995C427.01 270.256 426.88 270.418 426.815 270.483C426.62 270.679 426.229 271.004 425.643 271.46C425.122 271.851 424.536 272.306 423.885 272.827C423.234 273.283 422.616 273.739 422.03 274.194C421.509 274.585 421.151 274.845 420.956 274.976L420.565 275.757C420.435 276.017 420.305 276.603 420.174 277.515C420.109 278.361 420.012 279.338 419.881 280.444C419.751 281.551 419.621 282.69 419.491 283.862C419.426 284.969 419.393 285.881 419.393 286.597C419.393 286.662 419.426 286.727 419.491 286.792C419.621 286.922 419.719 286.987 419.784 286.987C420.305 286.987 420.793 286.759 421.249 286.304C421.704 285.848 422.193 285.522 422.713 285.327L438.338 270.874L442.342 264.722C442.668 264.266 443.286 263.778 444.198 263.257C445.174 262.671 446.151 262.378 447.127 262.378C448.104 262.313 448.95 262.606 449.667 263.257C450.448 263.908 450.838 265.177 450.838 267.065ZM429.354 259.448C429.68 259.188 429.81 258.797 429.745 258.276C429.68 257.756 429.484 257.3 429.159 256.909C428.898 256.519 428.54 256.291 428.084 256.226C427.629 256.095 427.206 256.323 426.815 256.909C426.62 257.17 426.262 257.69 425.741 258.472C425.285 259.253 424.797 260.067 424.276 260.913C423.82 261.694 423.43 262.378 423.104 262.964C422.778 263.55 422.713 263.778 422.909 263.647L429.354 259.448Z" fill="#CAD3E2"/>
<path d="M273.592 291.089C273.592 290.763 273.592 290.47 273.592 290.21C273.657 289.95 273.82 289.689 274.081 289.429C274.862 288.452 275.741 287.443 276.717 286.401C277.694 285.295 278.638 284.22 279.549 283.179C280.461 282.072 281.307 280.933 282.088 279.761C282.87 278.589 283.521 277.417 284.042 276.245V275.659L271.249 278.296H269.784C268.872 278.296 267.733 278.231 266.366 278.101C265.064 277.97 263.762 277.71 262.459 277.319C261.222 276.864 260.148 276.245 259.237 275.464C258.39 274.683 257.967 273.641 257.967 272.339C258.032 270.841 258.814 269.181 260.311 267.358C261.808 265.535 263.566 263.745 265.584 261.987C267.603 260.229 269.621 258.602 271.639 257.104C273.722 255.607 275.383 254.435 276.62 253.589C277.987 252.808 279.614 252.189 281.502 251.733C283.39 251.213 285.116 250.952 286.678 250.952C287.98 250.952 289.12 251.213 290.096 251.733C291.073 252.189 291.561 253.133 291.561 254.565C291.561 255.151 291.496 255.705 291.366 256.226C291.301 256.746 290.91 257.104 290.194 257.3C288.111 257.104 286.157 257.267 284.334 257.788C282.512 258.244 280.786 258.96 279.159 259.937C277.531 260.913 276.001 262.085 274.569 263.452C273.137 264.754 271.737 266.121 270.37 267.554C269.979 268.009 269.491 268.66 268.905 269.507C268.319 270.288 268.026 270.744 268.026 270.874V270.972C269.719 270.972 271.379 270.809 273.006 270.483C274.699 270.158 276.359 269.832 277.987 269.507C279.68 269.116 281.34 268.758 282.967 268.433C284.66 268.107 286.385 267.944 288.143 267.944C288.794 267.944 289.51 268.009 290.292 268.14C291.073 268.205 291.789 268.4 292.44 268.726C293.156 269.051 293.709 269.507 294.1 270.093C294.556 270.614 294.784 271.297 294.784 272.144C294.784 273.381 294.458 274.585 293.807 275.757C293.221 276.864 292.31 278.231 291.073 279.858C289.901 281.421 288.371 283.341 286.483 285.62C284.66 287.899 282.479 290.828 279.94 294.409C279.81 294.604 279.484 294.735 278.963 294.8C278.508 294.865 278.117 294.897 277.792 294.897C276.88 294.897 275.936 294.507 274.959 293.726C274.048 292.944 273.592 292.065 273.592 291.089Z" stroke="black" stroke-width="24" mask="url(#path-2-outside-2_2255_14)"/>
<path d="M308.456 266.284C307.544 266.284 306.73 266.512 306.014 266.968C305.298 267.424 304.452 267.651 303.475 267.651C303.345 267.651 302.987 267.651 302.401 267.651C301.88 267.586 301.555 267.554 301.424 267.554C301.164 267.228 300.871 266.968 300.545 266.772C300.22 266.577 299.894 266.382 299.569 266.187C299.243 265.926 298.95 265.633 298.69 265.308C298.495 264.982 298.397 264.526 298.397 263.94C298.397 262.964 298.788 262.183 299.569 261.597C300.35 260.946 301.262 260.392 302.303 259.937C303.345 259.481 304.387 259.058 305.428 258.667C306.535 258.276 307.414 257.821 308.065 257.3V253.003C308.065 248.185 307.837 243.368 307.381 238.55C306.926 233.667 306.698 228.849 306.698 224.097C306.698 222.795 307.023 221.948 307.674 221.558C308.325 221.167 309.204 220.972 310.311 220.972C311.613 220.972 312.557 221.362 313.143 222.144C313.794 222.86 314.25 223.771 314.51 224.878C314.771 225.92 314.901 227.059 314.901 228.296C314.901 229.468 314.933 230.477 314.999 231.323C314.999 232.17 315.064 233.667 315.194 235.815C315.324 237.964 315.454 240.243 315.584 242.651C315.715 245.06 315.845 247.339 315.975 249.487C316.105 251.636 316.203 253.133 316.268 253.979C316.528 253.914 317.017 253.752 317.733 253.491C318.514 253.166 319.328 252.873 320.174 252.612C321.021 252.287 321.802 251.994 322.518 251.733C323.299 251.473 323.853 251.278 324.178 251.147C325.871 250.431 327.629 249.65 329.452 248.804C331.275 247.892 333.13 247.437 335.018 247.437C336.32 247.437 337.297 247.892 337.948 248.804C338.664 249.65 339.022 250.659 339.022 251.831C339.022 252.677 338.696 253.296 338.045 253.687C337.394 254.077 336.711 254.435 335.995 254.761L318.221 261.401C318.026 261.532 317.831 261.662 317.635 261.792C317.44 261.857 317.245 261.987 317.049 262.183V265.308C317.049 267.586 317.082 269.963 317.147 272.437C317.277 274.845 317.505 277.189 317.831 279.468C318.156 281.421 318.514 283.341 318.905 285.229C319.295 287.118 319.491 289.038 319.491 290.991C319.491 291.577 319.295 292.358 318.905 293.335C318.514 294.312 317.896 294.8 317.049 294.8C315.292 294.8 313.859 294.279 312.752 293.237C311.646 292.196 311.027 290.796 310.897 289.038C310.571 285.653 310.213 281.942 309.823 277.905C309.497 273.869 309.172 269.995 308.846 266.284H308.456Z" stroke="black" stroke-width="24" mask="url(#path-2-outside-2_2255_14)"/>
<path d="M342.44 279.858L346.053 254.761C346.183 253.914 346.542 253.296 347.127 252.905C347.778 252.515 348.495 252.319 349.276 252.319C350.708 252.319 351.847 252.743 352.694 253.589C353.54 254.37 354.256 255.347 354.842 256.519H354.94C355.721 256.519 356.405 256.388 356.991 256.128C357.642 255.802 358.423 255.64 359.334 255.64C361.418 255.64 363.176 256.291 364.608 257.593C366.105 258.895 367.31 260.49 368.221 262.378C369.133 264.201 369.784 266.187 370.174 268.335C370.63 270.483 370.858 272.371 370.858 273.999C370.858 275.952 370.337 278.133 369.295 280.542C368.319 282.951 366.984 285.229 365.292 287.378C363.664 289.526 361.808 291.317 359.725 292.749C357.642 294.181 355.526 294.897 353.377 294.897C351.424 294.897 349.732 294.442 348.299 293.53C346.932 292.619 345.793 291.479 344.881 290.112C344.035 288.68 343.417 287.085 343.026 285.327C342.635 283.569 342.44 281.844 342.44 280.151V279.858ZM350.643 280.444C350.773 281.095 350.903 281.844 351.034 282.69C351.164 283.537 351.359 284.318 351.62 285.034C351.88 285.685 352.238 286.206 352.694 286.597C353.215 286.922 353.931 286.922 354.842 286.597C355.689 285.815 356.6 284.937 357.577 283.96C358.553 282.983 359.465 281.942 360.311 280.835C361.222 279.728 361.971 278.556 362.557 277.319C363.143 276.082 363.436 274.78 363.436 273.413C363.696 271.2 363.534 269.181 362.948 267.358C362.362 265.47 361.515 264.136 360.409 263.354C359.367 262.508 358.163 262.41 356.795 263.062C355.428 263.647 354.061 265.308 352.694 268.042C351.913 269.735 351.359 271.72 351.034 273.999C350.773 276.213 350.643 278.263 350.643 280.151V280.444Z" stroke="black" stroke-width="24" mask="url(#path-2-outside-2_2255_14)"/>
<path d="M379.549 290.601C379.419 288.257 379.191 285.132 378.866 281.226C378.605 277.254 378.28 273.153 377.889 268.921C377.564 264.689 377.206 260.685 376.815 256.909C376.424 253.133 376.099 250.203 375.838 248.12C375.838 247.274 376.229 246.72 377.01 246.46C377.792 246.2 378.54 246.069 379.256 246.069C380.168 246.069 381.112 246.33 382.088 246.851C383.13 247.371 383.781 248.088 384.042 248.999C384.042 249.259 384.074 249.748 384.139 250.464C384.204 251.115 384.237 251.799 384.237 252.515C384.302 253.231 384.367 253.947 384.432 254.663C384.497 255.314 384.53 255.77 384.53 256.03C384.53 256.421 384.53 256.714 384.53 256.909C384.53 257.104 384.53 257.3 384.53 257.495C384.53 257.625 384.562 257.788 384.627 257.983C384.693 258.179 384.79 258.504 384.92 258.96C385.051 258.83 385.181 258.667 385.311 258.472C385.506 258.276 385.637 258.146 385.702 258.081C386.743 256.584 387.752 255.282 388.729 254.175C389.706 253.003 390.715 251.929 391.756 250.952C392.798 249.91 393.937 248.836 395.174 247.729C396.476 246.558 397.974 245.223 399.667 243.726C400.057 243.4 400.35 243.172 400.545 243.042C400.741 242.847 400.903 242.716 401.034 242.651C401.229 242.521 401.424 242.456 401.62 242.456C401.815 242.391 402.075 242.358 402.401 242.358C403.508 242.358 404.614 242.749 405.721 243.53C406.893 244.246 407.479 245.256 407.479 246.558C407.479 247.013 407.316 247.502 406.991 248.022C406.665 248.478 406.275 248.934 405.819 249.39C405.363 249.78 404.875 250.138 404.354 250.464C403.898 250.789 403.475 251.017 403.084 251.147C401.392 252.645 399.601 254.37 397.713 256.323C395.825 258.211 394.068 260.262 392.44 262.476C390.812 264.689 389.478 267 388.436 269.409C387.394 271.818 386.874 274.227 386.874 276.636C386.874 278.849 387.036 281.03 387.362 283.179C387.687 285.327 387.85 287.508 387.85 289.722V293.14C387.329 293.66 386.874 294.084 386.483 294.409C386.092 294.735 385.539 294.897 384.823 294.897C383.716 294.897 382.642 294.442 381.6 293.53C380.558 292.554 379.875 291.577 379.549 290.601Z" stroke="black" stroke-width="24" mask="url(#path-2-outside-2_2255_14)"/>
<path d="M450.838 267.065C450.708 268.237 450.545 269.149 450.35 269.8C450.22 270.451 449.959 271.037 449.569 271.558C449.178 272.078 448.625 272.632 447.909 273.218C447.193 273.739 446.216 274.52 444.979 275.562C443.742 276.538 442.212 277.84 440.389 279.468C438.566 281.095 436.353 283.211 433.749 285.815C432.707 286.792 431.633 287.801 430.526 288.843C429.419 289.884 428.247 290.828 427.01 291.675C425.838 292.456 424.601 293.107 423.299 293.628C421.997 294.149 420.63 294.409 419.198 294.409C416.398 294.409 414.347 293.465 413.045 291.577C411.743 289.689 411.092 287.508 411.092 285.034C411.092 283.407 411.125 282.039 411.19 280.933C411.32 279.826 411.581 278.394 411.971 276.636C411.255 275.985 410.637 275.431 410.116 274.976C409.595 274.455 409.334 273.771 409.334 272.925C409.334 272.144 409.497 271.623 409.823 271.362C410.213 271.102 410.637 270.939 411.092 270.874C411.613 270.744 412.101 270.614 412.557 270.483C413.013 270.353 413.338 270.093 413.534 269.702C413.664 269.312 413.892 268.595 414.217 267.554C414.608 266.512 414.999 265.438 415.389 264.331C415.78 263.159 416.138 262.085 416.463 261.108C416.854 260.067 417.114 259.351 417.245 258.96C417.7 257.853 418.189 256.746 418.709 255.64C419.295 254.468 419.946 253.426 420.663 252.515C421.444 251.603 422.323 250.854 423.299 250.269C424.341 249.683 425.545 249.39 426.913 249.39C427.694 249.39 428.638 249.748 429.745 250.464C430.917 251.18 432.023 252.059 433.065 253.101C434.107 254.077 434.986 255.119 435.702 256.226C436.418 257.332 436.776 258.276 436.776 259.058C436.776 260.034 436.548 260.946 436.092 261.792C435.637 262.573 435.051 263.322 434.334 264.038C433.683 264.689 432.967 265.308 432.186 265.894C431.405 266.479 430.689 267.033 430.038 267.554C429.972 267.554 429.842 267.619 429.647 267.749C429.452 267.879 429.289 267.977 429.159 268.042C429.094 268.107 428.931 268.27 428.67 268.53C428.475 268.726 428.247 268.953 427.987 269.214C427.726 269.474 427.466 269.735 427.206 269.995C427.01 270.256 426.88 270.418 426.815 270.483C426.62 270.679 426.229 271.004 425.643 271.46C425.122 271.851 424.536 272.306 423.885 272.827C423.234 273.283 422.616 273.739 422.03 274.194C421.509 274.585 421.151 274.845 420.956 274.976L420.565 275.757C420.435 276.017 420.305 276.603 420.174 277.515C420.109 278.361 420.012 279.338 419.881 280.444C419.751 281.551 419.621 282.69 419.491 283.862C419.426 284.969 419.393 285.881 419.393 286.597C419.393 286.662 419.426 286.727 419.491 286.792C419.621 286.922 419.719 286.987 419.784 286.987C420.305 286.987 420.793 286.759 421.249 286.304C421.704 285.848 422.193 285.522 422.713 285.327L438.338 270.874L442.342 264.722C442.668 264.266 443.286 263.778 444.198 263.257C445.174 262.671 446.151 262.378 447.127 262.378C448.104 262.313 448.95 262.606 449.667 263.257C450.448 263.908 450.838 265.177 450.838 267.065ZM429.354 259.448C429.68 259.188 429.81 258.797 429.745 258.276C429.68 257.756 429.484 257.3 429.159 256.909C428.898 256.519 428.54 256.291 428.084 256.226C427.629 256.095 427.206 256.323 426.815 256.909C426.62 257.17 426.262 257.69 425.741 258.472C425.285 259.253 424.797 260.067 424.276 260.913C423.82 261.694 423.43 262.378 423.104 262.964C422.778 263.55 422.713 263.778 422.909 263.647L429.354 259.448Z" stroke="black" stroke-width="24" mask="url(#path-2-outside-2_2255_14)"/>
</svg>
